<?xml version="1.0" encoding="utf-8"?>
<!-- Generator: Adobe Illustrator 19.2.1, SVG Export Plug-In . SVG Version: 6.00 Build 0)  -->
<svg version="1.1" id="Layer_1" xmlns="http://www.w3.org/2000/svg" xmlns:xlink="http://www.w3.org/1999/xlink" x="0px" y="0px"
	 viewBox="0 0 200 186" style="enable-background:new 0 0 200 186;" xml:space="preserve">
<style type="text/css">
	.st0{clip-path:url(#SVGID_2_);}
	.st1{clip-path:url(#SVGID_4_);}
	.st2{clip-path:url(#SVGID_2_);fill:#F1F1F1;}
	.st3{clip-path:url(#SVGID_8_);fill:#FFFFFF;}
	.st4{clip-path:url(#SVGID_8_);fill:none;stroke:#000000;}
	.st5{clip-path:url(#SVGID_10_);fill:#FFFFFF;}
	.st6{clip-path:url(#SVGID_10_);fill:none;stroke:#000000;}
	.st7{clip-path:url(#SVGID_2_);fill:#FFFFFF;}
	.st8{clip-path:url(#SVGID_2_);fill:none;stroke:#000000;}
	.st9{clip-path:url(#SVGID_16_);fill:none;stroke:#000000;}
	.st10{clip-path:url(#SVGID_16_);}
	.st11{clip-path:url(#SVGID_18_);}
	.st12{clip-path:url(#SVGID_22_);}
	.st13{clip-path:url(#SVGID_26_);}
	.st14{opacity:0.41;clip-path:url(#SVGID_30_);}
	.st15{clip-path:url(#SVGID_32_);}
	.st16{clip-path:url(#SVGID_34_);}
	.st17{clip-path:url(#SVGID_36_);}
	.st18{clip-path:url(#SVGID_38_);fill:none;stroke:#000000;}
	.st19{clip-path:url(#SVGID_40_);fill:none;stroke:#000000;}
	.st20{clip-path:url(#SVGID_42_);}
	.st21{clip-path:url(#SVGID_44_);}
	.st22{clip-path:url(#SVGID_46_);fill:none;stroke:#000000;}
	.st23{opacity:0.36;clip-path:url(#SVGID_48_);}
	.st24{clip-path:url(#SVGID_50_);}
	.st25{clip-path:url(#SVGID_52_);}
	.st26{clip-path:url(#SVGID_54_);}
	.st27{clip-path:url(#SVGID_56_);}
	.st28{clip-path:url(#SVGID_2_);fill:none;stroke:#000000;stroke-width:4;}
	.st29{clip-path:url(#SVGID_2_);fill:none;stroke:#C6AA4F;}
	.st30{fill:none;}
	.st31{fill:#FFFFFF;}
</style>
<g>
	<path d="M155,133.9c0,2.2,0.2,4.3-0.1,6.3c-0.1,0.8-1,1.9-1.7,2.2c-2.3,0.7-4.6,1.5-7,1.5C122.7,144,99,144,75.4,144
		c-0.5,0-1.1-0.1-1.7-0.2c0-1.1,0-2.1,0-3c7.4-1.7,7.4-1.7,7.3-11.5c-1,0-1.9,0-2.9,0c-9.2,0-18.3,0-27.5,0c-4.4,0-6.5-2-6.5-6.5
		c0-25.2,0-50.4,0-75.6c0-4.5,1.9-6.5,6.4-6.5c32.7,0,65.4,0,98.1,0c4.7,0,6.5,1.8,6.5,6.6c0,25.1,0,50.2,0,75.3c0,3-1.1,5-3.8,6.5
		c-1,0.6-1.2,2.7-2,4.4C151.7,133.8,153.1,133.8,155,133.9z M150.1,110.7c0.4,0,0.7,0.1,1.1,0.1c0.2-1,0.4-1.9,0.4-2.9
		c0-19.9,0-39.9,0-59.8c0-3.6-0.3-3.9-4-3.9c-32.1,0-64.1,0-96.2,0c-3.7,0-4,0.3-4,3.9c0,19.9,0,39.9,0,59.8c0,0.9,0.1,1.8,0.1,2.6
		c15.7,0,31.1,0,46.8,0c0-4.6,0-9.1,0-13.5c0.1-4.8,2-6.7,6.8-6.7c13.8,0,27.6,0,41.4,0c5.4,0,7.3,1.9,7.3,7.4c0,3.4,0,6.9,0,10.3
		C149.9,108.9,150,109.8,150.1,110.7z M146.1,133.7c0.1-0.5,0.2-0.7,0.2-1c0-12,0-23.9,0-35.9c0-2.3-1.2-2.7-3.2-2.7
		c-14,0-28,0.1-42,0c-2.5,0-3.4,0.8-3.4,3.4c0.1,10.1,0,20.2,0,30.3c0,1.9,0,3.8,0,5.9c5.9,0,11.5,0,17.3,0c0-7.3,0-14.4,0-21.5
		c0-3.8,2-5.8,5.8-5.9c4-0.1,8-0.1,12,0c4.6,0,6.5,1.9,6.5,6.4c0,5.4,0,10.7,0,16.1c0,1.6,0,3.3,0,5
		C141.8,133.7,143.9,133.7,146.1,133.7z M136,125.2c0-4.2,0-8.3,0-12.5c0-1.9-0.7-2.9-2.8-2.9c-4,0.1-8,0.1-11.9,0
		c-1.9,0-2.7,0.8-2.7,2.6c0,8.4,0,16.8,0,25.2c0,1.8,0.8,2.6,2.7,2.6c3.9-0.1,7.8-0.1,11.6,0c2.4,0.1,3.1-1,3-3.2
		C136,133.2,136,129.2,136,125.2z M94.2,125.4c0-3.8,0-7.1,0-10.7c-15.6,0-31.1,0-46.8,0c0,2.5,0,4.8,0,7.1c0,3.4,0.3,3.7,3.6,3.7
		c13.5,0,27,0,40.5,0C92.4,125.5,93.2,125.4,94.2,125.4z M89.1,134c2-0.1,3.5-0.2,5-0.3c0-1.6,0-2.9,0-4.3c-3.2,0-6.3,0-9.4,0
		c-0.4,3.7-0.7,7.2-1.1,10.7c1.9,0,3.6,0,5.5,0C89.1,138,89.1,136.1,89.1,134z M115,137.8c-7.7,0-15,0-22.4,0
		c1,2.7,12.8,3.8,22.4,2.2C115,139.3,115,138.6,115,137.8z M151.6,137.8c-4,0-7.9,0-11.9,0c-0.1,0.3-0.2,0.8-0.3,1.2
		c0,0.3,0,0.7,0,1C146.3,141.1,150.5,140.4,151.6,137.8z M150.2,114.3c0,3.9,0,7.4,0,11.1C152.1,123.4,152.2,116.1,150.2,114.3z"/>
	<path class="st31" d="M150.1,110.7c-0.1-0.9-0.1-1.8-0.1-2.6c0-3.4,0-6.9,0-10.3c0-5.5-1.9-7.4-7.3-7.4c-13.8,0-27.6,0-41.4,0
		c-4.8,0-6.8,1.9-6.8,6.7c0,4.4,0,8.9,0,13.5c-15.7,0-31.1,0-46.8,0c0-0.9-0.1-1.8-0.1-2.6c0-19.9,0-39.9,0-59.8
		c0-3.6,0.3-3.9,4-3.9c32.1,0,64.1,0,96.2,0c3.7,0,4,0.3,4,3.9c0,19.9,0,39.9,0,59.8c0,1-0.3,1.9-0.4,2.9
		C150.8,110.8,150.4,110.7,150.1,110.7z M101.8,50c-1-0.9-1.6-1.8-2.2-1.8c-0.6,0-1.6,1-1.7,1.5c0,0.6,0.8,1.7,1.4,1.8
		C100,51.6,100.7,50.7,101.8,50z"/>
	<path class="st31" d="M146.1,133.7c-2.2,0-4.2,0-6.6,0c0-1.7,0-3.4,0-5c0-5.4,0-10.7,0-16.1c0-4.5-1.9-6.4-6.5-6.4c-4,0-8-0.1-12,0
		c-3.8,0.1-5.8,2.1-5.8,5.9c-0.1,7.1,0,14.2,0,21.5c-5.8,0-11.4,0-17.3,0c0-2,0-3.9,0-5.9c0-10.1,0.1-20.2,0-30.3
		c0-2.6,0.9-3.4,3.4-3.4c14,0.1,28,0.1,42,0c1.9,0,3.2,0.4,3.2,2.7c-0.1,12,0,23.9,0,35.9C146.3,133,146.2,133.2,146.1,133.7z
		 M121.9,101.3c0.9-1.2,1.8-1.9,1.7-2.5c-0.1-0.7-1-1.2-1.6-1.9c-0.5,0.5-1.5,1-1.5,1.6C120.5,99.2,121.2,100,121.9,101.3z"/>
	<path class="st31" d="M136,125.2c0,4-0.1,8,0,11.9c0,2.2-0.7,3.3-3,3.2c-3.9-0.1-7.8-0.1-11.6,0c-1.9,0-2.7-0.8-2.7-2.6
		c0-8.4,0-16.8,0-25.2c0-1.8,0.8-2.7,2.7-2.6c4,0.1,8,0.1,11.9,0c2.1,0,2.8,0.9,2.8,2.9C136,116.9,136,121.1,136,125.2z
		 M127.2,133.2c-0.7,1.2-1.6,1.9-1.5,2.5c0.1,0.6,1.1,1.2,1.7,1.7c0.5-0.6,1.5-1.2,1.5-1.9C128.9,135,128,134.3,127.2,133.2z"/>
	<path class="st31" d="M94.2,125.4c-1,0-1.8,0.1-2.7,0.1c-13.5,0-27,0-40.5,0c-3.3,0-3.6-0.3-3.6-3.7c0-2.3,0-4.6,0-7.1
		c15.7,0,31.2,0,46.8,0C94.2,118.2,94.2,121.6,94.2,125.4z"/>
	<path class="st31" d="M89.1,134c0,2.2,0,4.1,0,6.2c-2,0-3.7,0-5.5,0c0.4-3.5,0.7-7.1,1.1-10.7c3.2,0,6.2,0,9.4,0c0,1.3,0,2.7,0,4.3
		C92.6,133.8,91.1,133.8,89.1,134z"/>
	<path class="st31" d="M115,137.8c0,0.9,0,1.6,0,2.2c-9.6,1.5-21.4,0.5-22.4-2.2C100.1,137.8,107.4,137.8,115,137.8z"/>
	<path class="st31" d="M151.6,137.8c-1.1,2.6-5.3,3.3-12.1,2.2c0-0.3-0.1-0.7,0-1c0.1-0.4,0.2-0.9,0.3-1.2
		C143.7,137.8,147.6,137.8,151.6,137.8z"/>
	<path class="st31" d="M150.2,114.3c2.1,1.8,1.9,9.1,0,11.1C150.2,121.7,150.2,118.2,150.2,114.3z"/>
	<path d="M101.8,50c-1.1,0.7-1.8,1.6-2.4,1.5c-0.6-0.1-1.5-1.2-1.4-1.8c0-0.6,1-1.5,1.7-1.5C100.2,48.2,100.8,49.1,101.8,50z"/>
	<path d="M121.9,101.3c-0.7-1.3-1.4-2.1-1.3-2.7c0-0.6,1-1.1,1.5-1.6c0.6,0.6,1.5,1.2,1.6,1.9C123.7,99.4,122.8,100.1,121.9,101.3z"
		/>
	<path d="M127.2,133.2c0.8,1.1,1.7,1.8,1.7,2.4c0,0.6-1,1.2-1.5,1.9c-0.6-0.6-1.6-1.1-1.7-1.7C125.6,135.1,126.5,134.4,127.2,133.2z
		"/>
</g>
<rect x="50.5" y="46.5" class="st30" width="56.3" height="54.9"/>
</svg>
