<?xml version="1.0" encoding="utf-8"?>
<!-- Generator: Adobe Illustrator 19.2.1, SVG Export Plug-In . SVG Version: 6.00 Build 0)  -->
<svg version="1.1" id="Layer_1" xmlns="http://www.w3.org/2000/svg" xmlns:xlink="http://www.w3.org/1999/xlink" x="0px" y="0px"
	 viewBox="0 0 200 186" style="enable-background:new 0 0 200 186;" xml:space="preserve">
<style type="text/css">
	.st0{clip-path:url(#SVGID_2_);}
	.st1{clip-path:url(#SVGID_4_);}
	.st2{clip-path:url(#SVGID_2_);fill:#F1F1F1;}
	.st3{clip-path:url(#SVGID_8_);fill:#FFFFFF;}
	.st4{clip-path:url(#SVGID_8_);fill:none;stroke:#000000;}
	.st5{clip-path:url(#SVGID_10_);fill:#FFFFFF;}
	.st6{clip-path:url(#SVGID_10_);fill:none;stroke:#000000;}
	.st7{clip-path:url(#SVGID_2_);fill:#FFFFFF;}
	.st8{clip-path:url(#SVGID_2_);fill:none;stroke:#000000;}
	.st9{clip-path:url(#SVGID_16_);fill:none;stroke:#000000;}
	.st10{clip-path:url(#SVGID_16_);}
	.st11{clip-path:url(#SVGID_18_);}
	.st12{clip-path:url(#SVGID_22_);}
	.st13{clip-path:url(#SVGID_26_);}
	.st14{opacity:0.41;clip-path:url(#SVGID_30_);}
	.st15{clip-path:url(#SVGID_32_);}
	.st16{clip-path:url(#SVGID_34_);}
	.st17{clip-path:url(#SVGID_36_);}
	.st18{clip-path:url(#SVGID_38_);fill:none;stroke:#000000;}
	.st19{clip-path:url(#SVGID_40_);fill:none;stroke:#000000;}
	.st20{clip-path:url(#SVGID_42_);}
	.st21{clip-path:url(#SVGID_44_);}
	.st22{clip-path:url(#SVGID_46_);fill:none;stroke:#000000;}
	.st23{opacity:0.36;clip-path:url(#SVGID_48_);}
	.st24{clip-path:url(#SVGID_50_);}
	.st25{clip-path:url(#SVGID_52_);}
	.st26{clip-path:url(#SVGID_54_);}
	.st27{clip-path:url(#SVGID_56_);}
	.st28{clip-path:url(#SVGID_2_);fill:none;stroke:#000000;stroke-width:4;}
	.st29{clip-path:url(#SVGID_2_);fill:none;stroke:#C6AA4F;}
	.st30{fill:none;}
	.st31{fill:#FFFFFF;}
</style>
<g>
	<path d="M77.3,118.7c3.2-3.6,6.4-7.2,9.5-10.8c-3.5-6.1-3.8-12.2-0.8-18.4c0.2-0.5,0-1.6-0.4-2c-4.2-4.1-8.5-8.2-12.9-12.2
		c-0.5-0.4-1.6-0.5-2.3-0.3c-3.6,1.1-6.6,0.3-9-2.5c-2.7-3.3-3.2-7.6-1.2-11.6c1.6-3.2,4.7-4.9,8.1-4.6c5.2,0.5,9.1,6.4,7.3,12
		c-0.9,2.9-0.1,4.3,1.9,6.1c3.9,3.4,7.6,7.1,11.3,10.6c0.1,0.1,0.3,0.1,0.6,0.2c3.7-3,8-3.9,12.9-2.5c0.9-3.4,1.9-6.8,2.8-10.1
		c0.2-0.7,0.3-1.4,0.5-2.1c1.2-3,1.2-5.5-1.1-8.5c-4.5-6.2-0.6-15.3,6.7-16.5c1.4-0.2,3.1,0.1,4.5,0.6c4.2,1.7,6.6,6.4,6,11.6
		c-0.5,4.6-3.8,8.2-8.3,9c-0.9,0.2-1.7,0.1-2.9,0.2c-1.4,5.5-3,11.2-4.4,16.9c-0.1,0.4,0.2,1,0.6,1.4c1.1,1.4,2.3,2.7,3.7,4.2
		c4.3-3.2,8.6-6.4,12.8-9.8c0.5-0.4,0.5-1.6,0.5-2.4c-0.2-5.8,3.7-10.4,8.9-10.3c5.6,0.1,9.6,6.4,8,12.3c-1.7,6.1-8.6,10-14.8,3.8
		c-4.4,3.3-8.8,6.6-13.1,9.9c-0.4,0.3-0.7,1.2-0.7,1.8c0,2.3,0.2,4.6,0.4,7.5c3.7,1.4,7.9,3,12.1,4.6c0.3,0.1,1-0.3,1.3-0.7
		c4.5-5.1,9-6.1,13.6-3.2c4.7,3,6.6,9.8,4.4,15.1c-2.1,5-6.7,7.7-11.3,6.9c-4.8-0.9-8.7-5.7-8.7-11.2c0-2.1-0.8-2.9-2.6-3.5
		c-3.6-1.2-7.1-2.6-10.6-3.9c-6.1,9.5-14.4,9.9-21.3,4.9c-2.9,3.3-5.9,6.6-8.8,10c-0.4,0.4-0.2,1.6,0,2.3c2.1,5.4,1.8,10.5-2.1,15
		c-4.6,5.3-12,5.2-16.5-0.3c-3.6-4.4-4.1-11.1-1.1-15.9C64.7,116.2,70.5,114.9,77.3,118.7z M98.4,86.4c-4.3-0.1-7.3,2-9.1,5.6
		c-2.4,4.5-2.2,9.1,0.6,13.3c4.1,6.1,12,6.2,16.4,0.4c3.1-4.1,3.2-10.3,0.3-14.6C104.6,88.1,101.9,86.3,98.4,86.4z M78.2,129.2
		c0-4.6-3.4-8.5-7.5-8.6c-4.1-0.1-7.6,3.9-7.6,8.7c0,4.8,3.4,8.7,7.6,8.6C74.8,138,78.2,134,78.2,129.2z M134.3,120.6
		c3.8,0,6.7-3.3,6.7-7.4c0-4.1-3.1-7.6-6.7-7.6c-3.6,0-6.7,3.4-6.7,7.5C127.7,117.4,130.6,120.6,134.3,120.6z M118.1,56.2
		c0-3.7-2.5-6.6-5.7-6.5c-3.1,0.1-5.6,2.9-5.6,6.4c0,3.6,2.6,6.6,5.7,6.6C115.6,62.6,118.1,59.8,118.1,56.2z M127.7,76.7
		c0,3,2.2,5.4,4.9,5.3c2.6-0.1,4.6-2.4,4.6-5.3c0-3-2.1-5.4-4.8-5.4C129.8,71.2,127.7,73.7,127.7,76.7z M72.4,65.8
		c0-2.9-2.2-5.4-4.8-5.4c-2.5,0-4.7,2.5-4.7,5.5c0,3,2,5.3,4.8,5.3C70.4,71.1,72.4,68.8,72.4,65.8z"/>
	<path class="st31" d="M98.4,86.4c3.5-0.1,6.2,1.7,8.2,4.6c2.9,4.3,2.7,10.5-0.3,14.6c-4.4,5.9-12.3,5.7-16.4-0.4
		c-2.9-4.3-3-8.8-0.6-13.3C91.1,88.4,94.1,86.3,98.4,86.4z"/>
	<path class="st31" d="M78.2,129.2c0,4.8-3.4,8.7-7.5,8.8c-4.2,0-7.6-3.8-7.6-8.6c0-4.8,3.5-8.7,7.6-8.7
		C74.7,120.8,78.1,124.6,78.2,129.2z"/>
	<path class="st31" d="M134.3,120.6c-3.8,0-6.6-3.2-6.6-7.5c0-4.1,3.1-7.6,6.7-7.5c3.6,0,6.7,3.5,6.7,7.6
		C141.1,117.4,138.1,120.7,134.3,120.6z"/>
	<path class="st31" d="M118.1,56.2c0,3.6-2.5,6.4-5.6,6.4c-3.1,0-5.8-3-5.7-6.6c0-3.5,2.5-6.4,5.6-6.4
		C115.6,49.6,118.1,52.5,118.1,56.2z"/>
	<path class="st31" d="M127.7,76.7c0-3,2.1-5.4,4.7-5.4c2.6,0,4.8,2.5,4.8,5.4c0,2.9-2.1,5.2-4.6,5.3
		C130,82.1,127.8,79.7,127.7,76.7z"/>
	<path class="st31" d="M72.4,65.8c0,3.1-2,5.4-4.7,5.4c-2.7,0-4.7-2.2-4.8-5.3c0-2.9,2.1-5.5,4.7-5.5C70.2,60.3,72.4,62.8,72.4,65.8
		z"/>
</g>
</svg>
