<?xml version="1.0" encoding="utf-8"?>
<!-- Generator: Adobe Illustrator 19.2.1, SVG Export Plug-In . SVG Version: 6.00 Build 0)  -->
<svg version="1.1" id="Layer_1" xmlns="http://www.w3.org/2000/svg" xmlns:xlink="http://www.w3.org/1999/xlink" x="0px" y="0px"
	 viewBox="0 0 200 186" style="enable-background:new 0 0 200 186;" xml:space="preserve">
<style type="text/css">
	.st0{clip-path:url(#SVGID_2_);}
	.st1{clip-path:url(#SVGID_4_);}
	.st2{clip-path:url(#SVGID_2_);fill:#F1F1F1;}
	.st3{clip-path:url(#SVGID_8_);fill:#FFFFFF;}
	.st4{clip-path:url(#SVGID_8_);fill:none;stroke:#000000;}
	.st5{clip-path:url(#SVGID_10_);fill:#FFFFFF;}
	.st6{clip-path:url(#SVGID_10_);fill:none;stroke:#000000;}
	.st7{clip-path:url(#SVGID_2_);fill:#FFFFFF;}
	.st8{clip-path:url(#SVGID_2_);fill:none;stroke:#000000;}
	.st9{clip-path:url(#SVGID_16_);fill:none;stroke:#000000;}
	.st10{clip-path:url(#SVGID_16_);}
	.st11{clip-path:url(#SVGID_18_);}
	.st12{clip-path:url(#SVGID_22_);}
	.st13{clip-path:url(#SVGID_26_);}
	.st14{opacity:0.41;clip-path:url(#SVGID_30_);}
	.st15{clip-path:url(#SVGID_32_);}
	.st16{clip-path:url(#SVGID_34_);}
	.st17{clip-path:url(#SVGID_36_);}
	.st18{clip-path:url(#SVGID_38_);fill:none;stroke:#000000;}
	.st19{clip-path:url(#SVGID_40_);fill:none;stroke:#000000;}
	.st20{clip-path:url(#SVGID_42_);}
	.st21{clip-path:url(#SVGID_44_);}
	.st22{clip-path:url(#SVGID_46_);fill:none;stroke:#000000;}
	.st23{opacity:0.36;clip-path:url(#SVGID_48_);}
	.st24{clip-path:url(#SVGID_50_);}
	.st25{clip-path:url(#SVGID_52_);}
	.st26{clip-path:url(#SVGID_54_);}
	.st27{clip-path:url(#SVGID_56_);}
	.st28{clip-path:url(#SVGID_2_);fill:none;stroke:#000000;stroke-width:4;}
	.st29{clip-path:url(#SVGID_2_);fill:none;stroke:#C6AA4F;}
	.st30{fill:none;}
	.st31{fill:#FFFFFF;}
</style>
<rect x="118.9" y="145.7" class="st30" width="74.3" height="64.3"/>
<g>
	<path d="M97.3,43.2c15.3,0.4,27.4,5.6,36.3,17.1c7.1,9.1,9.5,19.5,7.1,31c-1.8,8.7-6.9,15.2-12.9,21.4
		c-8.3,8.5-16.4,17.3-24.7,25.9c-0.9,1-1.9,1.9-2.8,2.9c-1.5,1.6-2.6,1.7-4.2,0.1c-3.2-3.2-6.3-6.5-9.5-9.8
		c-7.1-7.4-14.2-14.9-21.3-22.3c-12.2-12.6-14.2-30.7-5.3-45.3c7-11.4,17.3-17.8,30.2-20.1C93,43.5,95.6,43.4,97.3,43.2z
		 M98.2,137.8c2.7-2.8,5.3-5.5,7.9-8.3c7-7.4,13.9-15,21.1-22.2c14-14.1,13.4-33.7,0.4-47.7c-7.4-8-16.8-11.9-27.6-12.4
		c-18.4-0.9-35.1,10.5-39.8,28C57,87,60.1,97.2,68,106c5.2,5.8,10.6,11.3,16,16.9C88.7,127.8,93.4,132.7,98.2,137.8z"/>
	<path class="st31" d="M98.2,137.8c-4.8-5.1-9.5-10-14.2-14.9c-5.3-5.6-10.8-11.1-16-16.9c-7.9-8.9-11-19.1-7.9-30.8
		c4.7-17.5,21.4-28.9,39.8-28c10.8,0.5,20.2,4.4,27.6,12.4c13,14,13.6,33.5-0.4,47.7c-7.2,7.3-14.1,14.8-21.1,22.2
		C103.5,132.3,100.9,135,98.2,137.8z M117.7,80.6c0.3-4.5-1.6-8.4-4.7-11.6c-5.7-5.9-12.7-7.5-20.5-5.5c-7.8,2-13.7,9.3-13.9,17
		c-0.1,10.1,8.9,18.5,19.8,18.4C109.5,98.7,118.2,90,117.7,80.6z"/>
	<path d="M117.7,80.6c0.5,9.4-8.2,18.1-19.3,18.2c-10.9,0.1-19.9-8.2-19.8-18.4c0.1-7.6,6.1-15,13.9-17c7.9-2,14.9-0.4,20.5,5.5
		C116.1,72.2,118,76.1,117.7,80.6z M98.1,95.2c2.3-0.6,4.6-0.9,6.7-1.7c8.8-3.3,11.5-14.8,5.2-21.7c-4.8-5.3-12.7-6.7-19.1-3.5
		c-8.8,4.4-10.1,14.9-5,20.9C89.1,92.9,93.1,94.8,98.1,95.2z"/>
	<path class="st31" d="M98.1,95.2c-5-0.4-9-2.3-12.2-6.1c-5.1-6-3.7-16.5,5-20.9c6.4-3.2,14.3-1.7,19.1,3.5
		c6.3,6.9,3.5,18.4-5.2,21.7C102.6,94.3,100.3,94.7,98.1,95.2z"/>
</g>
</svg>
