<?xml version="1.0" encoding="utf-8"?>
<!-- Generator: Adobe Illustrator 19.2.1, SVG Export Plug-In . SVG Version: 6.00 Build 0)  -->
<svg version="1.1" id="Layer_1" xmlns="http://www.w3.org/2000/svg" xmlns:xlink="http://www.w3.org/1999/xlink" x="0px" y="0px"
	 viewBox="0 0 488 192.1" style="enable-background:new 0 0 488 192.1;" xml:space="preserve">
<style type="text/css">
	.st0{clip-path:url(#SVGID_2_);}
	.st1{clip-path:url(#SVGID_4_);}
	.st2{clip-path:url(#SVGID_2_);fill:#FFFFFF;}
	.st3{clip-path:url(#SVGID_2_);fill:none;stroke:#000000;}
	.st4{clip-path:url(#SVGID_8_);}
	.st5{clip-path:url(#SVGID_2_);fill:none;stroke:#000000;stroke-width:4;}
	.st6{clip-path:url(#SVGID_2_);fill:#F1F1F1;}
	.st7{clip-path:url(#SVGID_12_);}
	.st8{clip-path:url(#SVGID_16_);}
	.st9{opacity:0.36;clip-path:url(#SVGID_20_);}
	.st10{clip-path:url(#SVGID_22_);}
	.st11{clip-path:url(#SVGID_24_);}
	.st12{clip-path:url(#SVGID_26_);}
	.st13{opacity:0.36;clip-path:url(#SVGID_32_);}
	.st14{clip-path:url(#SVGID_34_);}
	.st15{opacity:0.36;clip-path:url(#SVGID_36_);}
	.st16{clip-path:url(#SVGID_38_);}
	.st17{clip-path:url(#SVGID_40_);}
	.st18{clip-path:url(#SVGID_2_);fill:none;stroke:#000000;stroke-width:0.25;}
	.st19{clip-path:url(#SVGID_44_);}
	.st20{clip-path:url(#SVGID_48_);}
	.st21{clip-path:url(#SVGID_52_);}
	.st22{clip-path:url(#SVGID_56_);}
	.st23{clip-path:url(#SVGID_60_);}
	.st24{clip-path:url(#SVGID_64_);}
	.st25{clip-path:url(#SVGID_68_);}
	.st26{clip-path:url(#SVGID_72_);}
	.st27{clip-path:url(#SVGID_2_);fill:none;stroke:#000000;stroke-width:2;}
	.st28{clip-path:url(#SVGID_76_);}
	.st29{clip-path:url(#SVGID_80_);}
	.st30{clip-path:url(#SVGID_84_);}
	.st31{clip-path:url(#SVGID_88_);}
	.st32{clip-path:url(#SVGID_92_);}
	.st33{opacity:0.36;clip-path:url(#SVGID_96_);}
	.st34{clip-path:url(#SVGID_98_);}
	.st35{clip-path:url(#SVGID_100_);}
	.st36{clip-path:url(#SVGID_104_);}
	.st37{clip-path:url(#SVGID_108_);}
	.st38{clip-path:url(#SVGID_112_);}
	.st39{fill:none;}
</style>
<rect x="217.4" y="175" class="st39" width="365.9" height="274"/>
<g>
	<path d="M2.8,101.4c0-22.7,0-45.5,0-68.2c0-15.4,7.6-23,22.9-23c19,0,38,0.1,56.9,0c27.1-0.1,49,15.4,56,42.4
		c5.7,22.2-4.1,49.7-24.4,60.1c-8.9,4.5-20.1,5.3-30.4,6c-14.4,1-29,0.2-43.4,0.3c-10.2,0-10.3,0.1-10.5,10.6
		c-0.2,13.7-0.3,27.5-0.2,41.2c0.1,6.9-2.5,9.9-9.7,9.9c-21.5-0.2-17.1,0.5-17.3-17.1C2.6,142.9,2.8,122.2,2.8,101.4z M61,97.7
		c7.5,0,15,0.2,22.5,0c16.8-0.7,29-14,28.7-32.1c-0.2-19-10.3-31-28.4-31.8c-13-0.6-26-0.3-39-0.1c-8.9,0.1-14.2,4.7-14.5,13.7
		c-0.5,14.5-0.1,29-0.1,43.4c0,5.1,2.6,7,7.6,6.9C45.5,97.6,53.2,97.7,61,97.7z"/>
	<path d="M287.9,180.6c-12.8,0-12.8-0.1-17.7-11.6c-6.3-14.9-12.5-29.9-19.3-44.5c-1.1-2.4-5-5.1-7.6-5.2c-18.2-0.5-36.5-0.5-54.7,0
		c-2.8,0.1-6.8,3.1-8,5.8c-7,15.1-13.3,30.6-19.9,45.9c-3.7,8.6-18.5,13.8-26.5,8.7c-1.5-0.9-2.1-5.4-1.2-7.5
		c5.5-13.9,11.4-27.6,17.4-41.2c12.5-28.5,25.2-56.9,37.8-85.3c3.6-8.2,7.7-16.2,11-24.5c3.2-7.9,10-10,16.9-10
		c6.9,0.1,13.8,2.1,17.1,9.9c5.2,12.1,10.8,24,16.1,36.1c16.1,36.4,32.2,72.8,48,109.3C303.6,180.5,303.3,180.6,287.9,180.6z
		 M239.8,97.1c-7-15.7-13.1-29.7-19.7-43.4c-2.4-5-6.4-3.5-8.5,0.5c-3.5,6.5-6.6,13.3-9.5,20c-3.1,7.1-5.9,14.4-9.4,22.9
		C208.8,97.1,223.1,97.1,239.8,97.1z"/>
	<path d="M484.6,28.5c-1.2,2.5-2.1,7.1-4.9,9.9c-13.3,13.7-27.1,26.9-40.9,40.1c-7.2,6.9-15.4,7.3-21.3,1.4
		c-6-6.1-5.7-17.4,0.7-23.7c13.3-13,26.6-26,39.9-39c4.7-4.6,10-7.4,16.8-4.5C481.2,15.4,483.9,20.4,484.6,28.5z"/>
	<path d="M314.9,28.8c0.4-8.7,3.3-13.3,9.1-15.9c5.8-2.6,11.5-1.5,16,2.8c10.5,10.1,20.8,20.6,31.2,30.8c3.2,3.1,6.3,6.3,9.7,9.2
		c7.2,6.2,7.9,16.3,1.5,23.3c-6.2,6.9-14.1,6.9-21.5-0.3c-13.7-13.3-27.5-26.5-40.8-40.2C317.1,35.6,316,30.9,314.9,28.8z"/>
	<path d="M314.8,168.9c0.5-11.9,7-16.8,12.3-22.2c9.2-9.4,18.7-18.5,28.2-27.7c2.7-2.6,5.4-5.1,8.5-7.3c6.3-4.5,12.5-3.7,18.3,1.7
		c5.5,5.3,7,12.2,2.1,18c-8.4,9.8-17.5,19-26.6,28.1c-6.3,6.3-12.5,13-19.8,17.9c-3.6,2.4-10.4,2.7-14.4,0.9
		C319,176.6,316.5,171.1,314.8,168.9z"/>
	<path d="M485.4,165.1c-0.3,7.4-4.4,12-9.9,13.6c-4.2,1.3-10.3,0.8-13.7-1.5c-6.9-4.7-12.6-11.1-18.7-17c-8.2-8-16.6-15.8-24.3-24.2
		c-8.8-9.6-7.9-18.2,1.4-24.7c6-4.2,12.4-3.3,21.3,5c13.2,12.4,25.7,25.6,38.2,38.7C482.2,157.8,483.5,161.7,485.4,165.1z"/>
</g>
</svg>
